<svg width="33" height="33" viewBox="0 0 33 33" fill="none" xmlns="http://www.w3.org/2000/svg">
<rect width="33" height="33" rx="16.5" fill="#E8EAEB"/>
<path d="M16.1 11.4562L16.5 11.9896L16.9 11.4563C17.2682 10.9653 17.7457 10.5668 18.2946 10.2923C18.8435 10.0179 19.4488 9.875 20.0625 9.875C21.1109 9.875 22.1164 10.2915 22.8578 11.0328C23.5991 11.7742 24.0156 12.7797 24.0156 13.8281C24.0156 15.8962 22.8184 18.1022 20.2773 20.3885C19.1273 21.4223 17.8752 22.3366 16.5403 23.1173C16.5306 23.1226 16.5196 23.1253 16.5085 23.1251L16.5085 23.1249L16.495 23.125C16.4812 23.1252 16.4676 23.1217 16.4555 23.1149L16.4539 23.114C16.2762 23.0125 14.4021 21.9424 12.5691 20.2558C10.6968 18.5331 8.98438 16.274 8.98438 13.8281C8.98438 12.9984 9.24543 12.1898 9.73056 11.5167C10.2157 10.8436 10.9003 10.3402 11.6874 10.0779C12.4745 9.81549 13.3242 9.80743 14.1162 10.0548C14.9081 10.3022 15.6022 10.7925 16.1 11.4562Z" fill="#E8EAEB" stroke="#3A3A3A"/>
</svg>
