<svg width="33" height="33" viewBox="0 0 33 33" fill="none" xmlns="http://www.w3.org/2000/svg">
<rect width="33" height="33" rx="16.5" fill="#E8EAEB"/>
<path d="M20.0625 9.375C19.3712 9.375 18.6893 9.53596 18.071 9.84513C17.4527 10.1543 16.9148 10.6032 16.5 11.1562C15.9392 10.4085 15.1574 9.85623 14.2653 9.57756C13.3732 9.29888 12.416 9.30796 11.5293 9.60352C10.6426 9.89908 9.87143 10.4661 9.32494 11.2243C8.77845 11.9826 8.48438 12.8935 8.48438 13.8281C8.48437 19.1645 15.8988 23.3727 16.2105 23.5508C16.2989 23.6004 16.3987 23.626 16.5 23.625C16.6014 23.6267 16.7014 23.6011 16.7895 23.5508C18.1549 22.7526 19.4355 21.8175 20.6117 20.7602C23.202 18.4297 24.5156 16.0992 24.5156 13.8281C24.5156 12.6471 24.0465 11.5144 23.2113 10.6793C22.3762 9.84417 21.2435 9.375 20.0625 9.375Z" fill="#E72744"/>
</svg>
