<svg width="33" height="33" viewBox="0 0 33 33" fill="none" xmlns="http://www.w3.org/2000/svg">
<rect width="33" height="33" rx="16.5" fill="#E8EAEB"/>
<path d="M18.6146 12.2708C18.2042 12.2708 17.7995 12.3663 17.4325 12.5498C17.0655 12.7333 16.7462 12.9998 16.5 13.328C16.1671 12.8842 15.7031 12.5564 15.1735 12.391C14.644 12.2256 14.0759 12.231 13.5496 12.4064C13.0233 12.5818 12.5655 12.9184 12.2411 13.3685C11.9167 13.8185 11.7422 14.3592 11.7422 14.914C11.7422 18.0815 16.1432 20.5793 16.3282 20.685C16.3806 20.7145 16.4399 20.7297 16.5 20.7291C16.5602 20.7301 16.6195 20.7149 16.6718 20.685C17.4823 20.2112 18.2424 19.6562 18.9406 19.0286C20.4781 17.6453 21.2578 16.262 21.2578 14.914C21.2578 14.213 20.9793 13.5406 20.4836 13.0449C19.9879 12.5492 19.3156 12.2708 18.6146 12.2708Z" fill="#E72744"/>
</svg>
